<svg width="1500" height="1500" viewBox="0 0 1500 1500" fill="none" xmlns="http://www.w3.org/2000/svg">
<path d="M0 750C0 1164.21 335.786 1500 750 1500C1164.21 1500 1500 1164.21 1500 750C1500 335.786 1164.21 0 750 0C335.786 0 0 335.786 0 750Z" fill="#0B0B0B"/>
<path d="M694.92 765.568C694.92 780.394 699.737 792.255 709.371 801.151L930.573 1022.43C942.43 1032.81 954.657 1038 967.255 1038H1010.61C1020.24 1038 1029.5 1035.03 1038.4 1029.1C1046.55 1023.17 1052.85 1015.76 1057.29 1006.86C1065.44 986.849 1061.74 968.317 1046.18 951.266L856.098 760.008C847.947 754.819 847.947 748.147 856.098 739.992L1046.18 549.846C1062.48 535.019 1066.18 516.486 1057.29 494.247C1053.59 484.61 1047.29 476.826 1038.4 470.896C1029.5 464.965 1020.24 462 1010.61 462H967.255C954.657 462 942.43 467.189 930.573 477.568L709.371 698.849C699.737 708.486 694.92 720.347 694.92 734.432V765.568Z" fill="white"/>
<path d="M438 954.602C438 977.583 446.522 997.228 463.566 1013.54C479.869 1029.85 499.507 1038 522.479 1038C544.711 1038 564.348 1029.85 581.393 1013.54C597.696 997.228 605.847 977.583 605.847 954.602C605.847 931.622 597.696 911.977 581.393 895.668C564.348 879.359 544.711 871.205 522.479 871.205C499.507 871.205 479.869 879.359 463.566 895.668C446.522 911.977 438 931.622 438 954.602Z" fill="white"/>
</svg>
