<svg viewBox="0 0 19 20" fill="currentColor" xmlns="http://www.w3.org/2000/svg">
<path d="M18.8447 2.59237V2.27802C18.8447 1.02062 17.824 0 16.5666 0C15.3092 0 14.2886 1.02062 14.2886 2.27802V2.59237H18.8447Z" />
<path d="M13.5334 17.9424H1.02878C0.461319 17.9424 0 18.4038 0 18.9712C0 19.5387 0.461319 20 1.02878 20H14.9459L13.5334 17.9424Z" />
<path d="M12.9577 5.60523H1.02878C0.461319 5.60523 0 6.06654 0 6.63401C0 7.20147 0.461319 7.66279 1.02878 7.66279H12.9577V5.60523Z" />
<path d="M12.9577 9.71627H1.02878C0.461319 9.71627 0 10.1776 0 10.7451C0 11.3125 0.461319 11.7738 1.02878 11.7738H12.9577V9.71627Z" />
<path d="M12.9577 13.8273H1.02878C0.461319 13.8273 0 14.2886 0 14.8561C0 15.4236 0.461319 15.8849 1.02878 15.8849H12.9577V13.8273Z" />
<path d="M14.2927 3.92733V16.7014L16.3666 19.6979C16.4646 19.8408 16.6769 19.8408 16.7789 19.6979L18.8528 16.7014V3.92733H14.2927Z" />
</svg>
