<svg viewBox="0 0 18 20" fill="currentColor" xmlns="http://www.w3.org/2000/svg">
<path d="M8 18H3C2.73478 18 2.48043 17.8946 2.29289 17.7071C2.10536 17.5196 2 17.2652 2 17V3C2 2.73478 2.10536 2.48043 2.29289 2.29289C2.48043 2.10536 2.73478 2 3 2H8V5C8 5.79565 8.31607 6.55871 8.87868 7.12132C9.44129 7.68393 10.2044 8 11 8H14V10C14 10.2652 14.1054 10.5196 14.2929 10.7071C14.4804 10.8946 14.7348 11 15 11C15.2652 11 15.5196 10.8946 15.7071 10.7071C15.8946 10.5196 16 10.2652 16 10V7C16 7 16 7 16 6.94C15.9896 6.84813 15.9695 6.75763 15.94 6.67V6.58C15.8897 6.4754 15.8258 6.37789 15.75 6.29L9.75 0.29C9.66211 0.214192 9.5646 0.150308 9.46 0.0999999C9.43015 0.0957601 9.39985 0.0957601 9.37 0.0999999L9.06 0H3C2.20435 0 1.44129 0.316071 0.87868 0.87868C0.316071 1.44129 0 2.20435 0 3V17C0 17.7956 0.316071 18.5587 0.87868 19.1213C1.44129 19.6839 2.20435 20 3 20H8C8.26522 20 8.51957 19.8946 8.70711 19.7071C8.89464 19.5196 9 19.2652 9 19C9 18.7348 8.89464 18.4804 8.70711 18.2929C8.51957 18.1054 8.26522 18 8 18ZM10 3.41L12.59 6H11C10.7348 6 10.4804 5.89464 10.2929 5.70711C10.1054 5.51957 10 5.26522 10 5V3.41ZM16 13H10.41L11.71 11.71C11.8983 11.5217 12.0041 11.2663 12.0041 11C12.0041 10.7337 11.8983 10.4783 11.71 10.29C11.5217 10.1017 11.2663 9.99591 11 9.99591C10.7337 9.99591 10.4783 10.1017 10.29 10.29L7.29 13.29C7.20167 13.3872 7.13064 13.4988 7.08 13.62C6.97998 13.8635 6.97998 14.1365 7.08 14.38C7.12581 14.5036 7.1974 14.6161 7.29 14.71L10.29 17.71C10.383 17.8037 10.4936 17.8781 10.6154 17.9289C10.7373 17.9797 10.868 18.0058 11 18.0058C11.132 18.0058 11.2627 17.9797 11.3846 17.9289C11.5064 17.8781 11.617 17.8037 11.71 17.71C11.8037 17.617 11.8781 17.5064 11.9289 17.3846C11.9797 17.2627 12.0058 17.132 12.0058 17C12.0058 16.868 11.9797 16.7373 11.9289 16.6154C11.8781 16.4936 11.8037 16.383 11.71 16.29L10.41 15H16C16.2652 15 16.5196 14.8946 16.7071 14.7071C16.8946 14.5196 17 14.2652 17 14C17 13.7348 16.8946 13.4804 16.7071 13.2929C16.5196 13.1054 16.2652 13 16 13Z" />
</svg>
