<svg viewBox="0 0 19 16" fill="currentColor" xmlns="http://www.w3.org/2000/svg">
<path d="M13.8844 7.67123C16.197 7.67123 18.0717 9.53569 18.0717 11.8356C18.0717 14.1355 16.197 16 13.8844 16C12.035 16 10.4655 14.8075 9.91113 13.1535H8.16081C7.60641 14.8075 6.03699 16 4.18751 16C1.87492 16 0.00019866 14.1355 0.00019866 11.8356C0.00019866 9.53569 1.87492 7.67123 4.18751 7.67123C6.35132 7.67123 8.13179 9.30351 8.35192 11.3975H9.72002C9.94016 9.30351 11.7206 7.67123 13.8844 7.67123ZM4.18751 9.42466C2.84864 9.42466 1.76328 10.5041 1.76328 11.8356C1.76328 13.1672 2.84864 14.2466 4.18751 14.2466C5.52637 14.2466 6.61174 13.1672 6.61174 11.8356C6.61174 10.5041 5.52637 9.42466 4.18751 9.42466ZM13.8844 9.42466C12.5456 9.42466 11.4602 10.5041 11.4602 11.8356C11.4602 13.1672 12.5456 14.2466 13.8844 14.2466C15.2233 14.2466 16.3087 13.1672 16.3087 11.8356C16.3087 10.5041 15.2233 9.42466 13.8844 9.42466ZM12.1319 0C13.2024 0 14.1463 0.698378 14.4539 1.71817L15.3408 4.65616C16.0395 4.77181 16.7232 4.90788 17.3921 5.0644C17.866 5.1753 18.1598 5.64729 18.0483 6.11861C17.9368 6.58993 17.4622 6.88211 16.9883 6.77122C14.5592 6.20279 11.9086 5.91781 9.03597 5.91781C6.16333 5.91781 3.51276 6.20279 1.08364 6.77122C0.609726 6.88211 0.135143 6.58993 0.0236325 6.11861C-0.0878777 5.64729 0.205912 5.1753 0.67983 5.0644C1.34843 4.90795 2.03191 4.77192 2.73026 4.65631L3.61807 1.71817C3.92569 0.698378 4.8695 0 5.94006 0H12.1319Z" />
</svg>
