<svg viewBox="0 0 21 22" fill="none" stroke="currentColor" xmlns="http://www.w3.org/2000/svg">
<path d="M1.87134 19.9662L4.36701 17.4706M4.36701 17.4706L6.86268 14.9749M4.36701 17.4706L1.87134 14.9749M4.36701 17.4706L6.86268 19.9662M11.4345 21H17.9051C18.8797 21 19.6698 20.2099 19.6698 19.2353V5.41004C19.6698 5.22282 19.5954 5.04328 19.4631 4.91089L15.7588 1.20675C15.6265 1.07436 15.447 1 15.2598 1H3.78743C2.81281 1 2.02273 1.79008 2.02273 2.76471V10.4118M14.9639 5V1.41594C14.9639 1.18622 15.1501 1 15.3799 1C15.4901 1 15.5959 1.04382 15.674 1.12182L19.5479 4.99582C19.626 5.07382 19.6698 5.17962 19.6698 5.28994C19.6698 5.51966 19.4835 5.70588 19.2538 5.70588H15.6698C15.2799 5.70588 14.9639 5.38985 14.9639 5Z" stroke-width="2" stroke-linecap="round" stroke-linejoin="round"/>
</svg>
